<?xml version="1.0" encoding="UTF-8" standalone="no"?><!DOCTYPE svg PUBLIC "-//W3C//DTD SVG 1.1//EN" "http://www.w3.org/Graphics/SVG/1.1/DTD/svg11.dtd"><svg width="100%" height="100%" viewBox="0 0 278 153" version="1.1" xmlns="http://www.w3.org/2000/svg" xmlns:xlink="http://www.w3.org/1999/xlink" xml:space="preserve" xmlns:serif="http://www.serif.com/" style="fill-rule:evenodd;clip-rule:evenodd;stroke-linejoin:round;stroke-miterlimit:1.41421;"><g><path d="M55.71,29.312l4.276,3.55l16.237,-19.551l-4.275,-3.551l-16.238,19.552Z" style="fill:#bcbec0;fill-rule:nonzero;"/><path d="M33.323,56.463l4.276,3.55l16.237,-19.55l-4.275,-3.551l-16.238,19.551Z" style="fill:#bcbec0;fill-rule:nonzero;"/><path d="M124.184,63.614l3.959,-4.978l-4.976,-3.96l-3.961,4.978l4.978,3.96Z" style="fill:#bcbec0;fill-rule:nonzero;"/><path d="M85.896,111.059l3.96,-4.979l-4.977,-3.959l-3.961,4.978l4.978,3.96Z" style="fill:#bcbec0;fill-rule:nonzero;"/><path d="M116.526,73.103l3.96,-4.977l-4.977,-3.96l-3.961,4.977l4.978,3.96Z" style="fill:#bcbec0;fill-rule:nonzero;"/><path d="M138.481,35.699l-3.96,4.977l4.978,3.96l3.959,-4.977l-4.977,-3.96Z" style="fill:#bcbec0;fill-rule:nonzero;"/><path d="M93.554,101.57l3.959,-4.978l-4.977,-3.959l-3.959,4.977l4.977,3.96Z" style="fill:#bcbec0;fill-rule:nonzero;"/><path d="M101.211,92.081l3.96,-4.977l-4.977,-3.961l-3.96,4.979l4.977,3.959Z" style="fill:#bcbec0;fill-rule:nonzero;"/><path d="M108.869,82.592l3.959,-4.978l-4.977,-3.959l-3.96,4.978l4.978,3.959Z" style="fill:#bcbec0;fill-rule:nonzero;"/><path d="M131.841,54.125l3.96,-4.977l-4.977,-3.96l-3.96,4.977l4.977,3.96Z" style="fill:#bcbec0;fill-rule:nonzero;"/><path d="M10.937,83.615l4.275,3.55l16.237,-19.55l-4.275,-3.551l-16.237,19.551Z" style="fill:#bcbec0;fill-rule:nonzero;"/><path d="M206.746,106.807l-4.924,-5.291l0,-9.668l-14.133,19.736c1.2,-0.162 2.493,-0.256 3.912,-0.256c8.11,0 12.329,2.943 16.049,5.539c1.903,1.327 3.663,2.551 5.911,3.381l-6.815,-8.41l0,-5.031Z" style="fill:#bcbec0;fill-rule:nonzero;"/><path d="M229.193,100.696l-7.625,7.375l7.625,7.392l0,-14.767Z" style="fill:#bcbec0;fill-rule:nonzero;"/><path d="M190.111,52.014c0,-0.387 -0.007,-0.756 -0.009,-1.136l-49.511,61.157c4.261,1.029 7.116,3.014 9.723,4.832c3.431,2.394 6.394,4.461 12.618,4.461c6.224,0 9.187,-2.067 12.618,-4.461c2.172,-1.515 4.52,-3.144 7.705,-4.242l26.819,-37.453c-12.416,-5.063 -19.838,-13.622 -19.963,-23.158Z" style="fill:#bcbec0;fill-rule:nonzero;"/><path d="M220.006,149.85c-6.695,0 -9.99,-2.299 -13.477,-4.731c-3.713,-2.59 -7.552,-5.269 -15.191,-5.269c-7.639,0 -11.479,2.679 -15.192,5.269c-3.486,2.432 -6.78,4.731 -13.475,4.731c-6.694,0 -9.987,-2.299 -13.474,-4.731c-3.713,-2.59 -7.552,-5.269 -15.19,-5.269c-7.637,0 -11.476,2.679 -15.189,5.269c-3.447,2.405 -6.712,4.674 -13.254,4.725l0,3c7.488,-0.051 11.294,-2.699 14.971,-5.264c3.486,-2.433 6.778,-4.73 13.472,-4.73c6.694,0 9.987,2.297 13.473,4.73c3.714,2.59 7.553,5.27 15.191,5.27c7.638,0 11.477,-2.68 15.192,-5.27c3.487,-2.433 6.78,-4.73 13.475,-4.73c6.695,0 9.988,2.297 13.475,4.73c3.714,2.59 7.554,5.27 15.193,5.27c7.639,0 11.478,-2.68 15.193,-5.27c3.43,-2.392 6.68,-4.65 13.156,-4.723l0,-3c-7.422,0.075 -11.212,2.709 -14.873,5.262c-3.486,2.432 -6.781,4.731 -13.476,4.731Z" style="fill:#231f20;fill-rule:nonzero;"/><path d="M139.499,44.636l-4.978,-3.96l3.96,-4.977l4.977,3.96l-3.959,4.977Zm-1.178,-10.342l-5.205,6.543l6.543,5.205l5.204,-6.543l-6.542,-5.205Z" style="fill:#231f20;fill-rule:nonzero;"/><path d="M135.801,49.148l-3.96,4.977l-4.977,-3.96l3.96,-4.977l4.977,3.96Zm-10.343,1.177l6.543,5.205l5.205,-6.543l-6.542,-5.205l-5.206,6.543Z" style="fill:#231f20;fill-rule:nonzero;"/><path d="M128.143,58.636l-3.959,4.978l-4.978,-3.96l3.961,-4.978l4.976,3.96Zm-10.342,1.179l6.543,5.205l5.204,-6.544l-6.542,-5.205l-5.205,6.544Z" style="fill:#231f20;fill-rule:nonzero;"/><path d="M120.486,68.126l-3.96,4.977l-4.978,-3.96l3.961,-4.977l4.977,3.96Zm-10.342,1.177l6.543,5.205l5.204,-6.542l-6.542,-5.206l-5.205,6.543Z" style="fill:#231f20;fill-rule:nonzero;"/><path d="M112.828,77.614l-3.959,4.978l-4.978,-3.959l3.96,-4.978l4.977,3.959Zm-10.342,1.179l6.543,5.205l5.204,-6.544l-6.542,-5.204l-5.205,6.543Z" style="fill:#231f20;fill-rule:nonzero;"/><path d="M105.171,87.104l-3.96,4.977l-4.977,-3.959l3.96,-4.979l4.977,3.961Zm-10.342,1.178l6.543,5.205l5.204,-6.543l-6.542,-5.205l-5.205,6.543Z" style="fill:#231f20;fill-rule:nonzero;"/><path d="M97.513,96.592l-3.959,4.978l-4.977,-3.96l3.959,-4.977l4.977,3.959Zm-10.342,1.178l6.543,5.205l5.204,-6.543l-6.542,-5.205l-5.205,6.543Z" style="fill:#231f20;fill-rule:nonzero;"/><path d="M89.856,106.08l-3.96,4.979l-4.978,-3.96l3.961,-4.978l4.977,3.959Zm-10.343,1.179l6.544,5.205l5.204,-6.544l-6.542,-5.204l-5.206,6.543Z" style="fill:#231f20;fill-rule:nonzero;"/><path d="M232.887,116.867c-3.43,2.394 -6.395,4.461 -12.619,4.461c-1.944,0 -3.571,-0.202 -4.993,-0.552l-7.529,-9.292l0,-5.072l-4.924,-5.29l0,-9.928l27.371,26.559l0,-17.805l12.089,12.167c-4.081,1.049 -6.854,2.981 -9.395,4.752Zm-25.237,0c-3.72,-2.596 -7.939,-5.539 -16.049,-5.539c-1.419,0 -2.712,0.094 -3.912,0.256l14.133,-19.736l0,9.668l4.924,5.291l0,5.031l6.815,8.41c-2.248,-0.83 -4.008,-2.054 -5.911,-3.381Zm-32.1,0c-3.431,2.394 -6.394,4.461 -12.618,4.461c-6.224,0 -9.187,-2.067 -12.618,-4.461c-2.607,-1.818 -5.462,-3.803 -9.723,-4.832c-1.822,-0.439 -3.897,-0.707 -6.326,-0.707c-8.11,0 -12.328,2.943 -16.05,5.539c-3.431,2.394 -6.394,4.461 -12.617,4.461c-6.223,0 -9.185,-2.067 -12.615,-4.461c-0.097,-0.067 -0.196,-0.136 -0.293,-0.204l85.551,-105.981c2.948,2.381 11.631,11.813 11.861,40.196c0.002,0.38 0.009,0.749 0.009,1.136c0.125,9.536 7.547,18.095 19.963,23.158l-26.819,37.453c-3.185,1.098 -5.533,2.727 -7.705,4.242Zm-98.616,-5.539c-8.109,0 -12.327,2.943 -16.048,5.539c-1.685,1.176 -3.259,2.272 -5.161,3.084l76.656,-92.552c14.531,2.381 21.775,3.418 25.482,3.752l-67.68,83.841c-3.161,-1.959 -7.077,-3.664 -13.249,-3.664Zm-60.953,-23.525l16.237,-19.549l36.987,30.717l-13.386,16.162l-2.825,3.411l-37.013,-30.741Zm4.563,-29.245l5.86,4.867l-16.236,19.55l-5.86,-4.866l16.236,-19.551Zm-9.607,25.057l16.237,-19.551l4.275,3.551l-16.237,19.55l-4.275,-3.55Zm27.431,-22.962l16.238,-19.551l37.046,30.768l-13.386,16.162l-2.409,2.908l-0.416,0.502l-37.073,-30.789Zm4.564,-29.247l5.86,4.867l-16.238,19.551l-5.86,-4.867l16.238,-19.551Zm-9.609,25.057l16.238,-19.551l4.275,3.551l-16.237,19.55l-4.276,-3.55Zm27.432,-22.962l16.237,-19.551l37.107,30.818l-13.386,16.162l-2.408,2.909l-0.416,0.502l-37.134,-30.84Zm4.564,-29.246l5.86,4.867l-16.238,19.551l-5.859,-4.867l16.237,-19.551Zm-9.609,25.057l16.238,-19.552l4.275,3.551l-16.237,19.551l-4.276,-3.55Zm173.483,71.384l0,14.767l-7.625,-7.392l7.625,-7.375Zm35.799,16.171c-3.722,-2.596 -7.941,-5.539 -16.053,-5.539c-1.087,0 -2.099,0.057 -3.056,0.155l-15.758,-15.86l-9.473,9.159l-16.369,-16.369l10.506,-14.673l-1.853,-0.678c-12.299,-4.502 -19.709,-12.386 -19.825,-21.068c0,-1.64 -0.035,-3.201 -0.088,-4.726c-1.123,-33.053 -13.855,-39.678 -14.42,-39.955l-1.075,-0.524l-17.405,21.561c-2.871,-0.109 -16.209,-2.097 -28.105,-4.051l-0.85,-0.139l-10.417,12.577l-4.738,5.721l-51.086,-42.428l-20.07,24.167l51.118,42.455l-2.409,2.908l-51.026,-42.378l-20.07,24.167l51.058,42.404l-2.409,2.908l-50.966,-42.327l-20.07,24.167l50.998,42.354l-0.283,0.341c-0.783,0.084 -1.616,0.132 -2.527,0.132c-6.222,0 -9.183,-2.067 -12.613,-4.461c-3.721,-2.595 -7.938,-5.539 -16.047,-5.539l0,6c6.222,0 9.184,2.067 12.614,4.46c3.721,2.597 7.938,5.54 16.046,5.54c8.109,0 12.327,-2.943 16.048,-5.541c3.43,-2.392 6.392,-4.459 12.615,-4.459c6.223,0 9.185,2.067 12.615,4.46c3.722,2.597 7.94,5.54 16.049,5.54c8.109,0 12.328,-2.943 16.049,-5.54c3.431,-2.393 6.394,-4.46 12.618,-4.46c0.7,0 1.354,0.03 1.977,0.079c4.914,0.394 7.596,2.257 10.639,4.381c3.723,2.597 7.941,5.54 16.051,5.54c8.11,0 12.329,-2.943 16.05,-5.54c3.432,-2.393 6.395,-4.46 12.619,-4.46c6.223,0 9.186,2.067 12.616,4.46c3.722,2.597 7.941,5.54 16.051,5.54c8.111,0 12.33,-2.943 16.052,-5.54c3.432,-2.393 6.395,-4.46 12.619,-4.46c6.225,0 9.19,2.067 12.62,4.46c3.722,2.597 7.941,5.54 16.052,5.54l0,-6c-6.224,0 -9.187,-2.067 -12.619,-4.461Z" style="fill:#231f20;fill-rule:nonzero;"/></g></svg>