<?xml version="1.0" encoding="UTF-8"?>
<!DOCTYPE svg PUBLIC "-//W3C//DTD SVG 1.0//EN" "http://www.w3.org/TR/2001/REC-SVG-20010904/DTD/svg10.dtd">
<!-- Creator: CorelDRAW 2018 (64-Bit Evaluation Version) -->
<svg xmlns="http://www.w3.org/2000/svg" xml:space="preserve" width="162.927mm" height="26.5237mm" version="1.0" style="shape-rendering:geometricPrecision; text-rendering:geometricPrecision; image-rendering:optimizeQuality; fill-rule:evenodd; clip-rule:evenodd"
viewBox="0 0 16560.43 2695.95"
 xmlns:xlink="http://www.w3.org/1999/xlink">
 <defs>
  <style type="text/css">
   <![CDATA[
    .fil8 {fill:#27AB27}
    .fil0 {fill:#3D2829}
    .fil6 {fill:#573736}
    .fil5 {fill:#EDCB9C}
    .fil4 {fill:#FCE3BF}
    .fil1 {fill:#FEFEFE}
    .fil9 {fill:#27AB27;fill-rule:nonzero}
    .fil3 {fill:#27AB27;fill-rule:nonzero}
    .fil2 {fill:#573736;fill-rule:nonzero}
    .fil7 {fill:#E51685;fill-opacity:0.200000}
   ]]>
  </style>
 </defs>
 <g id="Layer_x0020_1">
  <metadata id="CorelCorpID_0Corel-Layer"/>
  <g id="_254887604448">
   <path class="fil0" d="M258.55 1816.64c-135.49,-49.37 -232.67,-183.62 -232.67,-341.51 0,-135.02 71.05,-252.73 176.36,-314.88 -6.48,-38.26 -9.88,-77.45 -9.88,-117.34 0,-414.81 364.45,-753.64 823.26,-775.6 78.34,-142.93 243.24,-241.43 434,-241.43 172.15,0 323.24,80.25 408.64,200.96 44.53,-6.26 90.17,-9.54 136.67,-9.54 25.78,0 51.28,1.04 76.49,3.01 57.2,-43.09 127.47,-68.5 203.47,-68.5 171.35,0 313.73,129.13 342.27,298.99 141.42,128.87 232.96,301.53 246.64,493.07 179.97,40.6 314.81,207.27 314.81,406.77 0,199.14 -134.35,365.6 -313.82,406.58 14.31,39.62 22.17,82.53 22.17,127.36 0,199.79 -155.59,361.76 -347.5,361.76 -5.67,0 -11.31,-0.14 -16.9,-0.43 -66.63,133.4 -200.57,224.5 -354.98,224.5 -220.84,0 -399.87,-186.38 -399.87,-416.28 0,-112.74 43.09,-215.02 113.03,-289.98 -110.81,-12.97 -215.05,-44.53 -308.69,-91.06 -66.41,42.77 -139.84,77.4 -218.48,102.23 38.06,63.71 60.04,138.9 60.04,219.44 0,229.9 -179.03,416.28 -399.87,416.28 -126.98,0 -240.12,-61.64 -313.37,-157.71 -33.31,11.05 -68.81,17.06 -105.65,17.06 -191.91,0 -347.5,-161.97 -347.5,-361.76 0,-31.79 3.95,-62.61 11.35,-91.99z"/>
   <path class="fil1" d="M143.44 1749.21c-71.97,-66.32 -117.56,-164.52 -117.56,-274.08 0,-135.02 69.19,-252.73 171.74,-314.88 -6.32,-38.26 -9.63,-77.45 -9.63,-117.34 0,-414.81 354.89,-753.64 801.64,-775.6 76.27,-142.93 246.29,-241.43 422.59,-241.43 176.31,0 326.95,76.55 410.32,196.33 -85.65,-82.89 -195.03,-131.66 -355.2,-131.66 -160.19,0 -346.32,98.5 -422.59,241.43 -446.75,21.95 -801.64,360.79 -801.64,775.6 0,39.88 3.3,79.08 9.63,117.34 -102.56,62.15 -171.74,179.86 -171.74,314.88 0,78.04 23.12,150.31 62.44,209.41zm1698.36 -1501.06c43.2,-6.21 66.3,-30.86 101.42,-30.86 35.11,0 49.93,1.04 74.47,3.01 55.7,-43.09 124.12,-68.5 198.12,-68.5 113.85,0 214.56,60.14 275.88,152.3 -59.25,-54.59 -136.39,-87.63 -220.76,-87.63 -74.01,0 -142.42,25.41 -198.12,68.5 -24.55,-1.97 -49.38,-3.01 -74.48,-3.01 -45.28,0 -89.72,3.28 -133.07,9.54 -13.57,-25.12 -10.62,-24.93 -23.46,-43.36zm997.43 711.14c73.02,28.31 135.84,79.29 181.05,145 -49.09,-46.68 -109.32,-80.33 -175.88,-95.75 -1.16,-16.56 -2.89,-32.98 -5.16,-49.26zm-986.62 1405.92c-80.15,-76.24 -130.67,-187.35 -130.67,-311.08 0,-89.99 26.73,-173.3 72.16,-241.39 30.39,6.91 61.44,12.29 93.02,16.09 -68.1,74.96 -110.06,177.24 -110.06,289.98 0,92.22 28.07,177.4 75.55,246.4zm-1493.68 -182.49c-71.98,-66.34 -117.55,-164.52 -117.55,-274.09 0,-19.84 1.48,-39.33 4.37,-58.3 19.43,12.44 40.11,22.87 61.8,30.99 -7.2,29.37 -11.05,60.19 -11.05,91.99 0,78.04 23.11,150.31 62.43,209.42z"/>
   <path class="fil2" d="M228.59 1832.41c-64.76,-28.31 -120.18,-75 -160.18,-133.71 -43.08,-63.21 -68.41,-140.38 -68.41,-223.57 0,-70.84 18.37,-137.33 50.42,-194.56 30.27,-54.04 72.83,-99.82 123.67,-133.19 -2.12,-14.52 -3.8,-29.03 -5.02,-43.46 -1.7,-20.28 -2.58,-40.66 -2.58,-61.01 0,-214.22 93.75,-408.8 246.55,-552.77 149.76,-141.1 356.47,-233.5 587.1,-247.81 42.21,-71.32 105.12,-131.48 181.51,-173.95 77.87,-43.33 169.75,-68.39 267.97,-68.39 88.41,0 171.75,20.35 244.35,56.04 70.48,34.67 130.86,83.95 175.96,143.22 18.12,-2.27 36.35,-4.07 54.71,-5.35 23.62,-1.64 47.07,-2.49 70.28,-2.49 11.75,0 24.95,0.3 39.47,0.86 10.38,0.42 20.2,0.94 29.43,1.54 29.17,-20.77 61.43,-37.4 95.92,-49.01 36.42,-12.26 75.13,-18.89 115.14,-18.89 91.38,0 175.2,34.21 240.19,90.98 63.62,55.57 109.13,132.85 125.96,220.78 71.15,66.22 129.8,143.48 172.42,228.7 39.88,79.71 65.69,166.26 74.55,256.96 89.06,24.5 166.68,78.21 222.72,150.64 58.64,75.79 93.77,172.01 93.77,276.65 0,104.45 -35.01,200.55 -93.44,276.29 -54.03,69.99 -128.19,122.56 -213.4,148.27 3.74,13.19 6.83,26.63 9.2,40.22 3.92,22.57 5.99,45.73 5.99,69.17 0,106.74 -41.69,203.55 -109.07,273.69 -67.61,70.39 -161.08,113.94 -264.3,113.94l-0.3 -0.1 -1.12 -0.02c-35.85,65.55 -87.44,120.72 -149.42,159.91 -64.49,40.78 -140.18,64.3 -221.04,64.3 -117.68,0 -224.25,-49.67 -301.34,-129.92 -76.85,-80.01 -124.42,-190.45 -124.42,-312.25 0,-58.41 11.02,-114.38 31.02,-165.67 14.8,-37.99 34.56,-73.39 58.36,-105.22 -39.93,-6.61 -78.98,-15.6 -116.88,-26.78 -48.9,-14.42 -95.94,-32.49 -140.64,-53.84 -30.48,18.93 -62.58,36.32 -96.03,51.97 -28.25,13.22 -57.15,25.08 -86.58,35.46 13.31,26.42 24.14,54.47 32.15,83.74 10.58,38.71 16.27,79.31 16.27,120.97 0,121.8 -47.57,232.23 -124.42,312.25 -77.1,80.25 -183.65,129.91 -301.34,129.91 -66.32,0 -129.27,-15.86 -185.41,-44.1 -52.75,-26.54 -99.43,-64.1 -137.26,-109.73 -12.72,3.53 -25.68,6.38 -38.78,8.5 -19.12,3.07 -38.38,4.69 -57.57,4.69 -103.23,0 -196.7,-43.55 -264.3,-113.94 -67.38,-70.14 -109.08,-166.96 -109.08,-273.69 0,-16.67 1.05,-33.25 3.06,-49.57 1.12,-8.95 2.52,-17.84 4.22,-26.64zm-117.52 -162.83c38.3,56.25 92.8,99.66 156.28,122.8l21.92 8 -5.65 22.52c-3.45,13.75 -6.12,27.93 -7.91,42.42 -1.73,14.06 -2.63,28.52 -2.63,43.31 0,93.02 36.13,177.14 94.5,237.91 58.14,60.52 138.46,97.96 227.12,97.96 17.17,0 33.72,-1.32 49.47,-3.86 16.54,-2.67 32.64,-6.63 48.1,-11.76l17.46 -5.79 11.14 14.6c34.96,45.85 79.64,83.36 130.69,109.05 48.91,24.62 103.94,38.43 162.15,38.43 103.14,0 196.55,-43.56 264.16,-113.93 67.84,-70.64 109.84,-168.39 109.84,-276.47 0,-37.55 -4.97,-73.6 -14.23,-107.43 -9.61,-35.11 -23.9,-68.31 -42.07,-98.77l-16.78 -28.06 31.14 -9.84c38.39,-12.12 75.19,-26.46 110.05,-42.76 35.41,-16.58 69.61,-35.51 102.26,-56.53l12.28 -7.92 13.09 6.49c46.02,22.87 94.69,42.02 145.4,56.97 49.63,14.64 101.42,25.32 154.8,31.57l50.75 5.95 -34.79 37.3c-33.45,35.88 -60.41,78.39 -78.69,125.34 -17.64,45.22 -27.35,94.89 -27.35,147.06 0,108.08 42,205.84 109.84,276.47 67.61,70.37 161.02,113.93 264.16,113.93 70.92,0 137.18,-20.55 193.55,-56.2 58.45,-36.97 106.52,-90.32 138.29,-153.95l7.42 -14.88 16.64 0.63 8.43 0.32 0 0.02 7.56 0.09 0 -0.11c88.66,0 168.98,-37.45 227.11,-97.96 58.36,-60.76 94.5,-144.88 94.5,-237.91 0,-20.81 -1.77,-41.03 -5.16,-60.49 -3.51,-20.24 -8.72,-39.7 -15.38,-58.18l-9.89 -27.34 28.49 -6.52c84.59,-19.29 158.55,-68.62 211.09,-136.67 51.59,-66.87 82.5,-151.99 82.5,-244.75 0,-92.94 -31.03,-178.18 -82.82,-245.11 -52.7,-68.1 -126.91,-117.36 -211.75,-136.49l-18.76 -4.22 -1.35 -19.13c-6.49,-90.85 -31.12,-177.27 -70.65,-256.27 -40.93,-81.84 -98.01,-156.1 -167.61,-219.52l-6.6 -6.01 -1.48 -8.84c-13.37,-79.61 -53.6,-149.58 -110.56,-199.33 -55.74,-48.68 -127.68,-78.02 -206.24,-78.02 -34.62,0 -67.83,5.63 -98.77,16.04 -32.11,10.81 -62.15,26.87 -89.13,47.19l-7.87 5.94 -9.72 -0.78c-13.28,-1.04 -25.65,-1.8 -37.03,-2.25 -10.94,-0.43 -23.42,-0.66 -37.45,-0.66 -22.96,0 -45.27,0.78 -66.86,2.28 -22.38,1.57 -44.5,3.91 -66.26,6.97l-15.45 2.19 -9.12 -12.92c-40.96,-57.91 -98.17,-106.03 -165.91,-139.35 -65.51,-32.21 -141.1,-50.57 -221.7,-50.57 -89.39,0 -172.65,22.61 -242.92,61.69 -72.27,40.2 -130.94,97.89 -168.43,166.3l-6.94 12.65 -14.49 0.68c-223.67,10.69 -424.19,98.77 -568.42,234.63 -142.66,134.41 -230.17,315.76 -230.17,515.19 0,19.23 0.81,38.18 2.37,56.76 1.63,19.25 4.03,38.08 7.1,56.33l2.95 17.46 -15.28 9.02c-49.64,29.29 -91.12,71.99 -119.89,123.36 -27.79,49.64 -43.73,107.49 -43.73,169.29 0,72.54 21.95,139.65 59.3,194.45z"/>
   <path class="fil3" d="M644.58 512.17c63.62,0 121.28,26.17 163.05,68.47 41.61,42.12 67.37,100.27 67.37,164.4 0,64.13 -25.76,122.28 -67.37,164.4 -41.77,42.29 -99.43,68.47 -163.05,68.47 -63.63,0 -121.28,-26.17 -163.06,-68.47 -41.6,-42.12 -67.37,-100.27 -67.37,-164.4 0,-64.13 25.77,-122.28 67.37,-164.4 41.78,-42.29 99.43,-68.47 163.06,-68.47zm117.06 113.69c-29.88,-30.25 -71.29,-48.99 -117.06,-48.99 -45.78,0 -87.18,18.74 -117.07,48.99 -30.05,30.43 -48.66,72.57 -48.66,119.18 0,46.6 18.61,88.73 48.66,119.18 29.89,30.25 71.29,48.99 117.07,48.99 45.77,0 87.18,-18.74 117.06,-48.99 30.06,-30.44 48.67,-72.57 48.67,-119.18 0,-46.6 -18.61,-88.74 -48.67,-119.18z"/>
   <path class="fil4" d="M1590.27 2670.07l0 0c430.28,0 782.29,-352.02 782.29,-782.29l0 -324.08c0,-213.44 -174.62,-388.06 -388.05,-388.06l-788.47 0c-213.43,0 -388.05,174.62 -388.05,388.06l0 324.08c0,430.27 352.01,782.29 782.29,782.29z"/>
   <path class="fil5" d="M1823.83 2136.09c4.96,19.48 6.47,51.6 -0.98,88.32 -7.45,36.69 -23.84,77.98 -43.48,107.73 -19.66,29.74 -42.57,47.92 -68.85,63.77 -26.26,15.83 -55.91,29.3 -99.03,36.71 -43.12,7.41 -99.71,8.77 -132.73,9.11 -33.02,0.34 -42.45,-0.34 -52.82,-8.99 -10.36,-8.65 -21.66,-25.29 -22.99,-55.43 -1.33,-30.15 7.29,-73.83 33.16,-101.23 25.87,-27.39 68.95,-38.51 116.1,-49.12 47.17,-10.61 98.37,-20.73 134.64,-37 36.29,-16.27 57.65,-38.74 70.2,-49.95 12.56,-11.23 16.35,-11.23 22.37,-15.54 6.02,-4.32 14.3,-12.94 22.65,-13.82 8.36,-0.9 16.8,5.96 21.77,25.43z"/>
   <path class="fil1" d="M816.73 2004.35c34.12,225.81 165.67,420.8 350.13,540.36 0.69,-0.21 1.33,-0.44 1.91,-0.71 9.03,-4.24 6.57,-15.26 -14.14,-36.7 -20.69,-21.47 -59.64,-53.38 -99.6,-103.15 -39.95,-49.77 -80.91,-117.42 -108.98,-177.73 -28.05,-60.33 -43.21,-113.34 -55.67,-152.07 -12.45,-38.75 -22.25,-63.22 -34.24,-73.57 -10.45,-9.05 -22.6,-7.32 -39.41,3.58z"/>
   <path class="fil5" d="M1590.27 2670.07l0 0c392.04,0 719.02,-292.25 774.07,-669.64 -8.12,-6.02 -14.45,-10.53 -20.35,-11.29 -12.69,-1.65 -23.36,14.09 -63.1,83.01 -39.72,68.9 -108.5,191 -183.29,277.91 -74.78,86.93 -155.59,138.64 -232.38,175.96 -76.78,37.31 -149.54,60.23 -220.29,71.02 -70.74,10.77 -139.46,9.41 -219.33,-6.84 -79.86,-16.27 -170.84,-47.45 -216.35,-63.03 -45.5,-15.6 -45.5,-15.6 -28.98,23.58l1.4 3.29c119.12,73.48 259.11,116.02 408.59,116.02z"/>
   <path class="fil5" d="M2372.56 1590.98l0 -27.27c0,-213.44 -174.62,-388.06 -388.05,-388.06l-788.47 0c-213.43,0 -388.05,174.62 -388.05,388.06l0 324.08 0.02 1.56c40.42,15.81 64.66,-4 75.17,-27.51 12.26,-27.39 5.95,-59.85 1.46,-117.37 -4.47,-57.53 -7.1,-140.14 12.46,-193.57 19.57,-53.43 61.34,-77.68 97.05,-97.22 35.71,-19.54 65.36,-34.36 85.55,-26.95 20.22,7.41 31,37.07 159.68,53.9 128.69,16.83 375.28,20.89 509.34,10.1 134.09,-10.79 155.66,-36.38 180.58,-53.89 24.93,-17.52 53.23,-26.97 79.52,-4.73 26.27,22.24 50.53,76.14 106.49,107.14 55.97,30.98 143.67,39.06 199.6,45.13 24.32,2.64 42.63,4.89 57.65,6.6z"/>
   <path class="fil2" d="M1590.27 2644.19c208,0 397.11,-85.1 534.21,-222.19 137.1,-137.1 222.19,-326.2 222.19,-534.21l0 -324.08c0,-99.64 -40.72,-190.2 -106.31,-255.77l-0.09 -0.09c-65.57,-65.59 -156.11,-106.31 -255.76,-106.31l-788.47 0c-99.65,0 -190.19,40.72 -255.77,106.31l-0.09 0.09c-65.59,65.57 -106.31,156.13 -106.31,255.77l0 324.08c0,208 85.11,397.11 222.2,534.21 137.1,137.1 326.2,222.19 534.21,222.19zm570.78 -185.62c-146.46,146.47 -348.52,237.39 -570.78,237.39 -222.26,0 -424.32,-90.92 -570.79,-237.39 -146.46,-146.46 -237.38,-348.51 -237.38,-570.78l0 -324.08c0,-113.73 46.56,-217.2 121.59,-292.26l0.04 -0.04 0.05 -0.05c75.06,-75.01 178.53,-121.59 292.25,-121.59l788.47 0c113.74,0 217.19,46.57 292.25,121.59l0.04 0.05 0.05 0.04c75.01,75.06 121.59,178.55 121.59,292.26l0 324.08c0,222.26 -90.92,424.32 -237.39,570.78z"/>
   <path class="fil6" d="M1426.36 1698.68c43.06,0 77.96,32.1 77.96,71.72 0,39.63 -34.9,71.74 -77.96,71.74 -43.06,0 -77.97,-32.11 -77.97,-71.74 0,-39.62 34.91,-71.72 77.97,-71.72z"/>
   <path class="fil6" d="M1742.83 1711.16c43.06,0 77.97,32.12 77.97,71.74 0,39.61 -34.91,71.72 -77.97,71.72 -43.05,0 -77.96,-32.11 -77.96,-71.72 0,-39.62 34.91,-71.74 77.96,-71.74z"/>
   <path class="fil1" d="M1738.73 1790.2c14,0 25.33,10.44 25.33,23.31 0,12.88 -11.33,23.31 -25.33,23.31 -14,0 -25.33,-10.43 -25.33,-23.31 0,-12.87 11.33,-23.31 25.33,-23.31z"/>
   <path class="fil6" d="M1673.43 1594.08l320 -44c13.22,-1.82 25.52,7.51 27.34,20.74l0 0c1.82,13.22 -7.54,25.52 -20.73,27.33l-320.01 44c-13.18,1.81 -25.52,-7.51 -27.33,-20.74l0 0c-1.82,-13.22 7.5,-25.52 20.73,-27.33z"/>
   <path class="fil6" d="M1485.47 1594.08l-320 -44c-13.22,-1.82 -25.52,7.51 -27.34,20.74l0 0c-1.81,13.22 7.54,25.52 20.74,27.33l320 44c13.19,1.81 25.52,-7.51 27.34,-20.74l0 0c1.82,-13.22 -7.51,-25.52 -20.74,-27.33z"/>
   <path class="fil7" d="M2042.35 1967.8c86.06,0 155.84,66.89 155.84,149.42 0,82.51 -69.78,149.41 -155.84,149.41 -86.06,0 -155.84,-66.89 -155.84,-149.41 0,-82.52 69.78,-149.42 155.84,-149.42z"/>
   <path class="fil7" d="M1124.8 1967.8c86.06,0 155.84,66.89 155.84,149.42 0,82.51 -69.78,149.41 -155.84,149.41 -86.07,0 -155.85,-66.89 -155.85,-149.41 0,-82.52 69.78,-149.42 155.85,-149.42z"/>
   <path class="fil8" d="M1177.42 955.59l789.25 0c48.01,0 87.28,39.3 87.28,87.3l0 200.53c0,48.04 -39.27,87.3 -87.28,87.3l-789.25 0c-48.04,0 -87.3,-39.26 -87.3,-87.3l0 -200.53c0,-48.01 39.26,-87.3 87.3,-87.3z"/>
   <path class="fil1" d="M1181.49 955.59l781.1 0c50.28,0 91.39,39.3 91.39,87.3l0 18.46c-12.11,-6.02 -20.25,-13.82 -29.47,-23.33 -10.82,-11.17 -23.15,-24.65 -33.52,-32.01 -10.36,-7.38 -18.72,-8.64 -153.84,-8.64 -135.09,0 -396.94,1.26 -532.7,2.73 -135.75,1.47 -145.46,3.15 -152.96,11.16 -7.48,7.99 -12.78,22.32 -15.21,64.65 -2.42,42.31 -1.98,112.63 2.64,152.43 4.63,39.78 13.46,49.05 21.17,58.53 7.7,9.47 14.33,19.16 11.02,28.01 -1.79,4.8 -6.53,9.35 -15.31,12.3 -37.85,-10.67 -65.7,-44.24 -65.7,-83.76l0 -200.53c0,-48.01 41.13,-87.3 91.39,-87.3z"/>
   <path class="fil2" d="M1181.49 929.71l781.1 0c32.53,0 62.13,12.74 83.59,33.23l0.1 0.09 0.48 0.46c21.16,20.47 34.3,48.59 34.3,79.4l0 200.53c0,31.14 -13.33,59.45 -34.78,79.95 -21.45,20.49 -51.1,33.24 -83.69,33.24l-781.1 0c-32.49,0 -62.13,-12.75 -83.59,-33.24l-0.1 -0.09 -0.48 -0.46c-21.16,-20.47 -34.3,-48.55 -34.3,-79.4l0 -200.53c0,-31.04 13.37,-59.36 34.85,-79.89l-0.05 -0.04c21.46,-20.51 51.1,-33.25 83.67,-33.25zm781.1 51.76l-781.1 0c-17.66,0 -33.73,6.92 -45.38,18.06l-0.05 -0.04 -0.05 0.04c-11.6,11.06 -18.8,26.44 -18.8,43.36l0 200.53c0,16.9 7.21,32.25 18.79,43.38l0.09 0.09c11.65,11.06 27.74,17.95 45.4,17.95l781.1 0c17.68,0 33.76,-6.92 45.4,-18.04 11.66,-11.14 18.89,-26.5 18.89,-43.38l0 -200.53c0,-16.88 -7.21,-32.25 -18.79,-43.37l-0.09 -0.09c-11.65,-11.07 -27.73,-17.96 -45.4,-17.96z"/>
   <path class="fil3" d="M418.61 1271.68c63.62,0 121.28,26.17 163.06,68.46 41.6,42.13 67.36,100.28 67.36,164.4 0,64.13 -25.76,122.28 -67.36,164.41 -41.78,42.28 -99.44,68.46 -163.06,68.46 -63.62,0 -121.28,-26.17 -163.06,-68.46 -41.6,-42.13 -67.36,-100.28 -67.36,-164.41 0,-64.12 25.76,-122.27 67.36,-164.4 41.78,-42.28 99.44,-68.46 163.06,-68.46zm117.06 113.69c-29.88,-30.26 -71.29,-49 -117.06,-49 -45.78,0 -87.18,18.74 -117.06,49 -30.06,30.43 -48.67,72.57 -48.67,119.17 0,46.6 18.61,88.74 48.67,119.18 29.88,30.25 71.28,49 117.06,49 45.77,0 87.18,-18.75 117.06,-49 30.06,-30.43 48.67,-72.57 48.67,-119.18 0,-46.59 -18.61,-88.73 -48.67,-119.17z"/>
   <path class="fil3" d="M2792.99 1153.07c63.62,0 121.28,26.16 163.06,68.46 41.6,42.12 67.36,100.28 67.36,164.4 0,64.13 -25.76,122.28 -67.36,164.4 -41.78,42.29 -99.44,68.47 -163.06,68.47 -63.62,0 -121.28,-26.17 -163.06,-68.47 -41.6,-42.12 -67.37,-100.27 -67.37,-164.4 0,-64.12 25.77,-122.28 67.37,-164.4 41.78,-42.29 99.44,-68.46 163.06,-68.46zm117.06 113.69c-29.88,-30.26 -71.29,-49 -117.06,-49 -45.78,0 -87.18,18.74 -117.07,49 -30.05,30.43 -48.66,72.57 -48.66,119.17 0,46.6 18.61,88.74 48.66,119.18 29.89,30.25 71.29,49 117.07,49 45.77,0 87.18,-18.75 117.06,-49 30.06,-30.43 48.67,-72.57 48.67,-119.18 0,-46.59 -18.61,-88.73 -48.67,-119.17z"/>
   <path class="fil3" d="M2262.4 303.65c63.62,0 121.28,26.17 163.06,68.47 41.6,42.12 67.36,100.27 67.36,164.4 0,64.12 -25.76,122.28 -67.36,164.4 -41.78,42.29 -99.44,68.46 -163.06,68.46 -63.62,0 -121.28,-26.16 -163.06,-68.46 -41.6,-42.12 -67.36,-100.28 -67.36,-164.4 0,-64.13 25.76,-122.28 67.36,-164.4 41.78,-42.29 99.44,-68.47 163.06,-68.47zm117.06 113.69c-29.88,-30.25 -71.28,-49 -117.06,-49 -45.77,0 -87.18,18.75 -117.06,49 -30.06,30.43 -48.67,72.57 -48.67,119.18 0,46.59 18.61,88.73 48.67,119.17 29.88,30.26 71.29,49 117.06,49 45.78,0 87.18,-18.74 117.06,-49 30.06,-30.43 48.67,-72.57 48.67,-119.17 0,-46.6 -18.61,-88.74 -48.67,-119.18z"/>
   <path class="fil0" d="M1216.63 841.48l703.28 0 0 416.39c0,71.17 -58.2,129.37 -129.35,129.37l-444.6 0c-71.14,0 -129.33,-58.2 -129.33,-129.37l0 -416.39z"/>
   <path class="fil1" d="M1380.55 1387.25l-34.59 0c-71.14,0 -129.33,-58.2 -129.33,-129.37l0 -328.46c6.26,0.29 12.02,0.29 17.28,0.29 10.81,0 19.53,0 23.87,0 4.35,0 4.35,0 4.01,29.83 -0.34,29.84 -1.01,89.54 -1.34,145.65 -0.34,56.12 -0.34,108.67 0.67,141.35 1.01,32.68 3.04,45.5 10.35,61.01 7.3,15.49 19.87,33.67 38.08,42.3 18.19,8.64 41.98,7.68 56.91,12.33 12.22,3.79 18.49,11.31 14.1,25.07z"/>
   <path class="fil2" d="M1939.31 929.71l0 328.17c0,40.86 -16.75,78.06 -43.69,105.02l-0.04 0.03 -0.03 0.04c-26.96,26.94 -64.15,43.69 -105,43.69l-444.6 0c-40.91,0 -78.12,-16.73 -105.07,-43.69 -26.94,-26.94 -43.67,-64.16 -43.67,-105.09l0 -328.17 38.81 0 0 328.17c0,30.23 12.39,57.74 32.3,77.65 19.93,19.94 47.42,32.32 77.62,32.32l444.6 0c30.25,0 57.75,-12.35 77.62,-32.24l0.08 -0.08c19.89,-19.87 32.24,-47.39 32.24,-77.65l0 -328.17 38.81 0z"/>
   <path class="fil0" d="M704.44 1714.32c128.59,0 232.84,105.23 232.84,235.04 0,129.81 -104.26,235.03 -232.84,235.03 -128.6,0 -232.84,-105.22 -232.84,-235.03 0,-129.81 104.25,-235.04 232.84,-235.04z"/>
   <path class="fil2" d="M782.26 1707.29c38.35,12.55 72.7,34.13 100.55,62.24 45.64,46.05 73.88,109.66 73.88,179.84 0,70.17 -28.25,133.77 -73.88,179.85 -14.37,14.51 -30.48,27.28 -47.98,37.96 -3.03,-9.99 -6.95,-23.13 -11.2,-38.86 11.41,-7.76 22.04,-16.61 31.73,-26.4 38.61,-38.98 62.52,-92.92 62.52,-152.56 0,-59.62 -23.91,-113.59 -62.52,-152.55 -20.5,-20.7 -45.16,-37.2 -72.61,-48.13 -0.24,-14.56 -0.4,-28.4 -0.49,-41.4z"/>
   <path class="fil0" d="M2461.17 1719.15c128.59,0 232.84,105.23 232.84,235.04 0,129.81 -104.26,235.03 -232.84,235.03 -128.6,0 -232.84,-105.22 -232.84,-235.03 0,-129.81 104.25,-235.04 232.84,-235.04z"/>
   <path class="fil2" d="M2341.84 2178.38c-21.8,-11.84 -41.67,-26.81 -59.03,-44.34 -45.64,-46.07 -73.88,-109.67 -73.88,-179.85 0,-70.17 28.25,-133.78 73.88,-179.84 30.97,-31.28 69.99,-54.45 113.63,-66.12 1.64,10.91 3.37,26.43 2.31,41.24 -31.91,10.66 -65.28,28.73 -88.49,52.17 -38.61,38.96 -62.52,92.92 -62.52,152.55 0,59.63 23.91,113.58 62.52,152.56 11.69,11.79 33.56,28.79 47.68,37.6 -1.97,13.69 -13.05,20.52 -16.09,34.03z"/>
   <path class="fil0" d="M2335.83 1027.92c128.59,0 232.85,105.22 232.85,235.03 0,129.81 -104.27,235.04 -232.85,235.04 -128.6,0 -232.84,-105.23 -232.84,-235.04 0,-129.81 104.25,-235.03 232.84,-235.03z"/>
   <path class="fil2" d="M2394.33 1510.51c-18.78,4.51 -38.37,6.89 -58.5,6.89 -69.63,0 -132.71,-28.52 -178.36,-74.61 -45.64,-46.06 -73.88,-109.67 -73.88,-179.85 0,-33.87 6.6,-66.2 18.53,-95.78 12.56,2.64 25.5,5.65 38.13,9.29 -11.48,26.46 -17.85,55.72 -17.85,86.49 0,59.63 23.92,113.59 62.52,152.56 38.61,38.98 91.98,63.09 150.92,63.09 18.09,0 35.68,-2.28 52.46,-6.56 1.62,12.69 3.73,24.6 6.04,38.47z"/>
   <path class="fil0" d="M808.56 1019.84c117.88,0 213.44,96.45 213.44,215.44 0,118.97 -95.56,215.43 -213.44,215.43 -117.88,0 -213.43,-96.46 -213.43,-215.43 0,-118.99 95.55,-215.44 213.43,-215.44z"/>
   <path class="fil2" d="M1035.35 1181.86c3.97,17.17 6.06,35.06 6.06,53.42 0,64.76 -26.07,123.47 -68.2,165.99 -42.13,42.53 -100.37,68.85 -164.64,68.85 -4.52,0 -8.99,-0.13 -13.45,-0.38 2.61,-9.34 4.73,-17.97 6.4,-24.04 2.25,-8.09 3.7,-11.64 6.74,-14.39l0.3 0c53.59,0 102.11,-21.92 137.21,-57.34 35.09,-35.43 56.83,-84.5 56.83,-138.7 0,-13.85 -1.41,-27.38 -4.12,-40.41 9.76,-4.16 19.1,-7.12 26.81,-9.64l10.05 -3.37z"/>
   <path class="fil1" d="M1418.87 2128.79l383.11 0 0 0c0,144.14 -117.91,262.05 -262.05,262.05l-121.07 0 0 -262.05z"/>
   <path class="fil2" d="M1418.87 2102.92l383.11 0c14.29,0 25.89,11.6 25.89,25.88 0,79.07 -32.39,151.04 -84.57,203.27l-0.05 0.05 -0.04 0.04 -0.06 0.06c-52.21,52.14 -124.18,84.51 -203.22,84.51l-121.07 0c-14.28,0 -25.88,-11.6 -25.88,-25.88l0 -262.05c0,-14.28 11.6,-25.88 25.88,-25.88zm355.81 51.76l-329.92 0 0 210.28 95.18 0c65,0 124.06,-26.54 166.79,-69.28l0.09 -0.09c37.01,-37 61.86,-86.2 67.87,-140.91z"/>
   <path class="fil1" d="M1423.53 1777.44c14,0 25.33,10.44 25.33,23.3 0,12.89 -11.33,23.32 -25.33,23.32 -14,0 -25.34,-10.43 -25.34,-23.32 0,-12.86 11.34,-23.3 25.34,-23.3z"/>
  </g>
  <path class="fil9" d="M4144.31 1983.26l0 -841.43c0,0 101.24,-40.5 200.24,-40.5 139.48,0 157.49,101.25 157.49,303.73l0 578.21 301.47 0 0 -582.71c0,-87.74 -9,-256.48 -9,-256.48 0,0 119.24,-42.75 209.23,-42.75 134.99,0 157.49,110.24 157.49,281.24l0 600.7 301.48 0 0 -609.71c0,-362.22 -89.99,-542.21 -395.97,-542.21 -170.99,0 -377.97,105.74 -377.97,105.74 -67.5,-71.99 -155.24,-105.74 -281.24,-105.74 -110.24,0 -265.48,89.99 -265.48,89.99l0 -63 -299.23 0 0 1124.92 301.48 0zm2390.6 -773.94c0,-263.24 -116.99,-377.97 -409.47,-377.97 -215.98,0 -456.71,65.24 -456.71,65.24l9 209.23c0,0 274.48,-18 422.97,-18 89.99,0 132.75,24.75 132.75,121.49l0 69.75 -240.73 17.99c-247.48,18 -393.73,89.99 -393.73,344.22 0,238.49 112.49,368.97 348.73,368.97 168.74,0 330.73,-78.74 330.73,-78.74 94.49,63 170.98,78.74 321.72,78.74l9 -227.23c-60.74,-11.25 -69.74,-38.25 -74.24,-105.74l0 -467.97zm-301.47 278.98l0 240.73c0,0 -123.74,35.99 -220.48,35.99 -81,0 -110.24,-53.99 -110.24,-132.74 0,-80.99 47.24,-119.24 125.99,-125.99l204.74 -18zm833.72 494.96l0 -841.43c0,0 101.24,-40.5 200.24,-40.5 139.48,0 157.49,101.25 157.49,303.73l0 578.21 301.47 0 0 -582.71c0,-87.74 -9,-256.48 -9,-256.48 0,0 119.24,-42.75 209.23,-42.75 134.99,0 157.49,110.24 157.49,281.24l0 600.7 301.48 0 0 -609.71c0,-362.22 -89.99,-542.21 -395.97,-542.21 -170.99,0 -377.97,105.74 -377.97,105.74 -67.5,-71.99 -155.24,-105.74 -281.24,-105.74 -110.24,0 -265.48,89.99 -265.48,89.99l0 -63 -299.23 0 0 1124.92 301.48 0zm1528.91 0l301.48 0 0 -1124.92 -301.48 0 0 1124.92zm0 -1268.9l301.48 0 0 -305.98 -301.48 0 0 305.98zm824.72 1268.9l0 -418.46 123.74 -20.25 227.23 438.71 339.72 0 -308.22 -591.71 292.48 -533.21 -337.48 0 -222.74 425.21 -114.73 20.26 0 -895.44 -301.48 0 0 1574.88 301.48 0zm1238.68 -1151.91c-391.47,0 -517.47,240.73 -517.47,587.2 0,346.47 126,591.71 517.47,591.71 391.47,0 517.47,-245.23 517.47,-591.71 0,-346.47 -126,-587.2 -517.47,-587.2zm0 922.43c-166.49,0 -211.48,-116.99 -211.48,-335.23 0,-218.23 44.99,-330.73 211.48,-330.73 166.49,0 211.49,112.5 211.49,330.73 0,218.24 -45,335.23 -211.49,335.23zm1492.91 -863.94c0,0 -274.48,-56.25 -436.47,-56.25 -236.23,0 -434.22,105.74 -434.22,366.73 0,247.48 128.24,305.98 371.23,346.47 206.98,33.75 231.73,56.25 231.73,105.74 0,58.5 -38.25,87.75 -182.24,87.75 -114.73,0 -393.71,-36 -393.71,-36l-9.01 251.98c0,0 265.48,53.99 431.97,53.99 281.23,0 452.21,-101.24 452.21,-364.47 0,-227.23 -92.24,-303.73 -353.22,-350.97 -206.99,-38.25 -249.74,-49.49 -249.74,-101.24 0,-60.75 27.01,-89.99 157.5,-89.99 130.49,0 409.47,35.99 409.47,35.99l4.49 -249.73zm179.01 1093.42l323.98 0 0 -373.47 -323.98 0 0 373.47zm952.97 -1151.91c-335.22,0 -474.71,179.99 -474.71,578.21 0,422.97 132.75,600.7 467.97,600.7 125.99,0 366.73,-47.24 366.73,-47.24l-9.01 -240.73c0,0 -175.49,18 -260.98,18 -215.98,0 -258.73,-78.74 -258.73,-330.73 0,-224.99 40.49,-308.23 256.49,-308.23 85.49,0 263.23,18 263.23,18l9.01 -238.49c0,0 -229.49,-49.49 -359.98,-49.49zm975.46 0c-391.47,0 -517.47,240.73 -517.47,587.2 0,346.47 126,591.71 517.47,591.71 391.47,0 517.47,-245.23 517.47,-591.71 0,-346.47 -126,-587.2 -517.47,-587.2zm0 922.43c-166.49,0 -211.48,-116.99 -211.48,-335.23 0,-218.23 44.99,-330.73 211.48,-330.73 166.49,0 211.49,112.5 211.49,330.73 0,218.24 -45,335.23 -211.49,335.23zm982.21 229.48l0 -841.43c0,0 101.24,-40.5 200.24,-40.5 139.48,0 157.49,101.25 157.49,303.73l0 578.21 301.47 0 0 -582.71c0,-87.74 -9,-256.48 -9,-256.48 0,0 119.24,-42.75 209.23,-42.75 134.99,0 157.49,110.24 157.49,281.24l0 600.7 301.48 0 0 -609.71c0,-362.22 -89.99,-542.21 -395.97,-542.21 -170.99,0 -377.97,105.74 -377.97,105.74 -67.5,-71.99 -155.24,-105.74 -281.24,-105.74 -110.24,0 -265.48,89.99 -265.48,89.99l0 -63 -299.23 0 0 1124.92 301.48 0z"/>
 </g>
</svg>
